HIERARCHY
ROOT Hips
{
    OFFSET   0.000000   0.000000   0.000000
    CHANNELS 6 Xposition Yposition Zposition Zrotation Xrotation Yrotation
    JOINT Chest
    {
        OFFSET   0.000000   8.007230   0.000000
        CHANNELS 3 Zrotation Xrotation Yrotation
        JOINT Chest2
        {
            OFFSET   0.000000  22.077100   0.000000
            CHANNELS 3 Zrotation Xrotation Yrotation
            JOINT Neck
            {
                OFFSET   0.000000  23.254800  -0.000021
                CHANNELS 3 Zrotation Xrotation Yrotation
                JOINT Head
                {
                    OFFSET   0.000000  14.370000   1.956610
                    CHANNELS 3 Zrotation Xrotation Yrotation
                    End Site
                    {
                        OFFSET   0.000000  19.566000   0.000000
                    }
                }
            }
            JOINT LeftCollar
            {
                OFFSET   3.911900  19.017000  -0.467063
                CHANNELS 3 Zrotation Xrotation Yrotation
                JOINT LeftShoulder
                {
                    OFFSET  10.383700   0.000000   0.000000
                    CHANNELS 3 Zrotation Xrotation Yrotation
                    JOINT LeftElbow
                    {
                        OFFSET  26.662100   0.001529   0.000325
                        CHANNELS 3 Zrotation Xrotation Yrotation
                        JOINT LeftWrist
                        {
                            OFFSET  28.869000  -0.000011  -0.000096
                            CHANNELS 3 Zrotation Xrotation Yrotation
                            JOINT LeftFinger0
                            {
                                OFFSET   2.044650  -2.323460   3.252850
                                CHANNELS 3 Zrotation Xrotation Yrotation
                                JOINT LeftFinger01
                                {
                                    OFFSET   3.088130   0.000000   0.000000
                                    CHANNELS 3 Zrotation Xrotation Yrotation
                                    JOINT LeftFinger02
                                    {
                                        OFFSET   2.639460   0.000000   0.000000
                                        CHANNELS 3 Zrotation Xrotation Yrotation
                                        End Site
                                        {
                                            OFFSET   2.582190   0.000000   0.000000
                                        }
                                    }
                                }
                            }
                            JOINT LeftFinger1
                            {
                                OFFSET   8.364480   0.000000   3.252850
                                CHANNELS 3 Zrotation Xrotation Yrotation
                                JOINT LeftFinger11
                                {
                                    OFFSET   4.646930   0.000000   0.000000
                                    CHANNELS 3 Zrotation Xrotation Yrotation
                                    JOINT LeftFinger12
                                    {
                                        OFFSET   2.323460   0.000000   0.000000
                                        CHANNELS 3 Zrotation Xrotation Yrotation
                                        End Site
                                        {
                                            OFFSET   2.273050   0.000000   0.000000
                                        }
                                    }
                                }
                            }
                            JOINT LeftFinger2
                            {
                                OFFSET   8.364480   0.000016   1.078090
                                CHANNELS 3 Zrotation Xrotation Yrotation
                                JOINT LeftFinger21
                                {
                                    OFFSET   5.111620   0.000000   0.000000
                                    CHANNELS 3 Zrotation Xrotation Yrotation
                                    JOINT LeftFinger22
                                    {
                                        OFFSET   2.788160   0.000017   0.000000
                                        CHANNELS 3 Zrotation Xrotation Yrotation
                                        End Site
                                        {
                                            OFFSET   2.727660   0.000000   0.000000
                                        }
                                    }
                                }
                            }
                            JOINT LeftFinger3
                            {
                                OFFSET   7.899780   0.000015  -1.078090
                                CHANNELS 3 Zrotation Xrotation Yrotation
                                JOINT LeftFinger31
                                {
                                    OFFSET   4.646920   0.000000   0.000000
                                    CHANNELS 3 Zrotation Xrotation Yrotation
                                    JOINT LeftFinger32
                                    {
                                        OFFSET   2.323470   0.000000   0.000000
                                        CHANNELS 3 Zrotation Xrotation Yrotation
                                        End Site
                                        {
                                            OFFSET   2.273050   0.000000   0.000000
                                        }
                                    }
                                }
                            }
                            JOINT LeftFinger4
                            {
                                OFFSET   7.435090   0.000000  -3.252850
                                CHANNELS 3 Zrotation Xrotation Yrotation
                                JOINT LeftFinger41
                                {
                                    OFFSET   3.717550   0.000000   0.000000
                                    CHANNELS 3 Zrotation Xrotation Yrotation
                                    JOINT LeftFinger42
                                    {
                                        OFFSET   1.858760   0.000000   0.000000
                                        CHANNELS 3 Zrotation Xrotation Yrotation
                                        End Site
                                        {
                                            OFFSET   1.818440   0.000000   0.000000
                                        }
                                    }
                                }
                            }
                        }
                    }
                }
            }
            JOINT RightCollar
            {
                OFFSET  -3.911900  19.017000  -0.467062
                CHANNELS 3 Zrotation Xrotation Yrotation
                JOINT RightShoulder
                {
                    OFFSET -10.383700   0.000015   0.000000
                    CHANNELS 3 Zrotation Xrotation Yrotation
                    JOINT RightElbow
                    {
                        OFFSET -26.662100   0.001341   0.000385
                        CHANNELS 3 Zrotation Xrotation Yrotation
                        JOINT RightWrist
                        {
                            OFFSET -28.869000   0.000025  -0.000080
                            CHANNELS 3 Zrotation Xrotation Yrotation
                            JOINT RightFinger0
                            {
                                OFFSET  -2.044650  -2.323490   3.252850
                                CHANNELS 3 Zrotation Xrotation Yrotation
                                JOINT RightFinger01
                                {
                                    OFFSET  -3.088130   0.000000   0.000000
                                    CHANNELS 3 Zrotation Xrotation Yrotation
                                    JOINT RightFinger02
                                    {
                                        OFFSET  -2.639460   0.000000   0.000000
                                        CHANNELS 3 Zrotation Xrotation Yrotation
                                        End Site
                                        {
                                            OFFSET  -2.582190   0.000000   0.000000
                                        }
                                    }
                                }
                            }
                            JOINT RightFinger1
                            {
                                OFFSET  -8.364480   0.000000   3.252850
                                CHANNELS 3 Zrotation Xrotation Yrotation
                                JOINT RightFinger11
                                {
                                    OFFSET  -4.646930   0.000000   0.000000
                                    CHANNELS 3 Zrotation Xrotation Yrotation
                                    JOINT RightFinger12
                                    {
                                        OFFSET  -2.323470   0.000000   0.000000
                                        CHANNELS 3 Zrotation Xrotation Yrotation
                                        End Site
                                        {
                                            OFFSET  -2.273050   0.000000   0.000000
                                        }
                                    }
                                }
                            }
                            JOINT RightFinger2
                            {
                                OFFSET  -8.364480   0.000000   1.078090
                                CHANNELS 3 Zrotation Xrotation Yrotation
                                JOINT RightFinger21
                                {
                                    OFFSET  -5.111610   0.000000   0.000000
                                    CHANNELS 3 Zrotation Xrotation Yrotation
                                    JOINT RightFinger22
                                    {
                                        OFFSET  -2.788160   0.000000   0.000000
                                        CHANNELS 3 Zrotation Xrotation Yrotation
                                        End Site
                                        {
                                            OFFSET  -2.727660   0.000000   0.000000
                                        }
                                    }
                                }
                            }
                            JOINT RightFinger3
                            {
                                OFFSET  -7.899780   0.000000  -1.078090
                                CHANNELS 3 Zrotation Xrotation Yrotation
                                JOINT RightFinger31
                                {
                                    OFFSET  -4.646920   0.000000   0.000000
                                    CHANNELS 3 Zrotation Xrotation Yrotation
                                    JOINT RightFinger32
                                    {
                                        OFFSET  -2.323470   0.000000   0.000000
                                        CHANNELS 3 Zrotation Xrotation Yrotation
                                        End Site
                                        {
                                            OFFSET  -2.273050   0.000000   0.000000
                                        }
                                    }
                                }
                            }
                            JOINT RightFinger4
                            {
                                OFFSET  -7.435090   0.000000  -3.252850
                                CHANNELS 3 Zrotation Xrotation Yrotation
                                JOINT RightFinger41
                                {
                                    OFFSET  -3.717550   0.000000   0.000000
                                    CHANNELS 3 Zrotation Xrotation Yrotation
                                    JOINT RightFinger42
                                    {
                                        OFFSET  -1.858770   0.000000   0.000000
                                        CHANNELS 3 Zrotation Xrotation Yrotation
                                        End Site
                                        {
                                            OFFSET  -1.818440   0.000000   0.000000
                                        }
                                    }
                                }
                            }
                        }
                    }
                }
            }
        }
    }
    JOINT LeftHip
    {
        OFFSET   9.783010   0.000000   0.000000
        CHANNELS 3 Zrotation Xrotation Yrotation
        JOINT LeftKnee
        {
            OFFSET   0.000070 -41.789100   0.000028
            CHANNELS 3 Zrotation Xrotation Yrotation
            JOINT LeftAnkle
            {
                OFFSET   0.000087 -41.133200  -0.000100
                CHANNELS 3 Zrotation Xrotation Yrotation
                JOINT LeftToe
                {
                    OFFSET   0.000000  -6.358960  14.674500
                    CHANNELS 3 Zrotation Xrotation Yrotation
                    End Site
                    {
                        OFFSET   0.000000   0.000000   3.913200
                    }
                }
            }
        }
    }
    JOINT RightHip
    {
        OFFSET  -9.783020   0.000000   0.000000
        CHANNELS 3 Zrotation Xrotation Yrotation
        JOINT RightKnee
        {
            OFFSET   0.000044 -41.789100  -0.000870
            CHANNELS 3 Zrotation Xrotation Yrotation
            JOINT RightAnkle
            {
                OFFSET  -0.000090 -41.133200  -0.000245
                CHANNELS 3 Zrotation Xrotation Yrotation
                JOINT RightToe
                {
                    OFFSET   0.000000  -6.358960  14.674500
                    CHANNELS 3 Zrotation Xrotation Yrotation
                    End Site
                    {
                        OFFSET   0.000000   0.000000   3.913200
                    }
                }
            }
        }
    }
}
MOTION
Frames: 4
Frame Time:   0.016667
  0.712279  90.146200   4.214020  -1.136080  -0.498694  -2.388850  -0.498202   3.114230   0.261778  -1.012910   6.226030   0.551935   1.654980  -1.268190   0.029572   2.728170  -2.565440   5.519380  -4.734230  -2.036080   6.416450 -71.198600  15.925400  -3.025520  -3.128510   1.370220 -18.188200  12.381800   3.632470  10.973100  44.342300  34.901200 -74.825600 -21.244700  -0.003380   0.007578  -5.632670  -0.004364   0.003317 -29.758100   7.527560 -12.889100 -25.044500  -0.009984  -0.001601 -17.531200  -0.003428   0.003767 -28.464200   1.813450  -3.324000 -36.239700  -0.000480  -0.003338 -24.135700  -0.009736  -0.003739 -26.570200   1.402520  -2.786330 -26.604600  -0.008212  -0.007747 -17.718600  -0.001592  -0.007143 -26.510400   0.438214  -0.878453 -39.770600  -0.009803  -0.008253 -26.487200   0.005189  -0.005884  11.460000   2.726060   4.198920  64.079200  13.993100   3.223420   2.139690  -3.222830  15.856500 -15.030700 -17.882700   0.408251 -34.105000  31.059300  68.533300  34.998600  -0.000104   0.000196  12.497300  -0.005408   0.001916  36.476200   2.443580   3.310260  29.901800  -0.002982   0.002330  20.931300  -0.004713   0.004174  28.656200  -2.299520  -4.190580  40.055000  -0.002936  -0.002485  26.676700   0.006010   0.003442  29.370200  -3.963990  -7.002820  44.419300   0.004239  -0.003973  29.583200   0.003934  -0.002116  42.809000  -5.483730  -5.891450  64.625100   0.003856   0.005762  43.039200   0.003436  -0.001180   0.802349   1.948300   2.786120   0.197032   0.150910  12.095500  -4.998350  -3.511040   6.389000  -0.000000   0.000000  -0.000000   1.220620   2.094070  -6.987130   0.521544   1.093510  -9.814150  -9.599380   1.456550   1.724280  -0.000000   0.000000  -0.000000
  0.712045  90.146200   4.226100  -1.136240  -0.505148  -2.384310  -0.498286   3.123100   0.265608  -1.013350   6.243720   0.559699   1.659060  -1.268420   0.029572   2.732360  -2.566000   5.529450  -4.733120  -2.046920   6.409200 -71.157000  15.979800  -3.067720  -3.111880   1.319280 -18.196000  12.372600   3.612950  10.983300  44.338800  34.902200 -74.828300 -21.253200  -0.003365   0.007577  -5.632670  -0.004359   0.003325 -29.767300   7.527560 -12.889200 -25.051900  -0.009983  -0.001593 -17.536400  -0.003427   0.003781 -28.464000   1.813350  -3.328490 -36.255700  -0.000467  -0.003336 -24.146400  -0.009736  -0.003737 -26.578700   1.402440  -2.786330 -26.613100  -0.008203  -0.007734 -17.724200  -0.001590  -0.007134 -26.515300   0.443230  -0.888313 -39.778100  -0.009806  -0.008243 -26.492200   0.005186  -0.005878  11.460800   2.718820   4.198890  64.065800  14.021300   3.226690   2.151800  -3.248920  15.820200 -15.018400 -17.899100   0.411358 -34.096900  31.066700  68.545300  35.008300  -0.000101   0.000155  12.497200  -0.005413   0.001922  36.490000   2.447140   3.310740  29.913700  -0.002979   0.002327  20.939800  -0.004714   0.004175  28.656500  -2.296690  -4.188820  40.075000  -0.002933  -0.002484  26.690000   0.006010   0.003442  29.381500  -3.962380  -6.996980  44.435000   0.004241  -0.003970  29.593700   0.003933  -0.002115  42.809100  -5.479990  -5.886890  64.625200   0.003855   0.005762  43.039100   0.003437  -0.001179   0.801571   1.961950   2.781250   0.192372   0.149428  12.095300  -4.998490  -3.512250   6.389070  -0.000000   0.000000  -0.000000   1.222740   2.102820  -6.986850   0.520476   1.096470  -9.804350  -9.595250   1.454970   1.712840   0.000000   0.000000   0.000000
  0.711812  90.146300   4.245110  -1.136580  -0.517413  -2.377030  -0.498412   3.139200   0.272013  -1.014050   6.275860   0.572698   1.665400  -1.268650   0.029572   2.739630  -2.566500   5.551530  -4.731430  -2.063740   6.397740 -71.090300  16.066800  -3.136540  -3.087910   1.238420 -18.210600  12.357200   3.581340  10.999400  44.328800  34.903700 -74.832100 -21.265300  -0.003335   0.007572  -5.632670  -0.004345   0.003333 -29.784200   7.527560 -12.889200 -25.065400  -0.009980  -0.001566 -17.545800  -0.003420   0.003810 -28.463800   1.813240  -3.335590 -36.284200  -0.000432  -0.003329 -24.165300  -0.009740  -0.003734 -26.593400   1.402360  -2.786330 -26.627700  -0.008176  -0.007706 -17.734000  -0.001588  -0.007110 -26.524000   0.450742  -0.903023 -39.791400  -0.009814  -0.008219 -26.501000   0.005178  -0.005863  11.461900   2.707730   4.198850  64.040700  14.067900   3.234310   2.172870  -3.292040  15.764200 -14.994800 -17.915500   0.421537 -34.087700  31.079400  68.565500  35.018000  -0.000099   0.000115  12.497000  -0.005419   0.001928  36.506200   2.456380   3.314110  29.926900  -0.002976   0.002323  20.948900  -0.004717   0.004176  28.657400  -2.289320  -4.179760  40.094900  -0.002928  -0.002482  26.703200   0.006008   0.003439  29.396600  -3.954970  -6.979640  44.456900   0.004246  -0.003960  29.608300   0.003931  -0.002111  42.809100  -5.467510  -5.872890  64.625300   0.003852   0.005762  43.039100   0.003440  -0.001177   0.800367   1.985840   2.774370   0.185903   0.147947  12.095200  -4.999290  -3.516800   6.389160  -0.000000   0.000000   0.000000   1.225930   2.120300  -6.986470   0.519747   1.101400  -9.794560  -9.588910   1.450170   1.700390   0.000000   0.000000   0.000000
  0.713110  90.146300   4.258100  -1.137010  -0.529935  -2.372080  -0.498646   3.154470   0.277555  -1.015040   6.306340   0.583971   1.669110  -1.267240   0.029571   2.745170  -2.563480   5.579960  -4.730490  -2.074340   6.388140 -71.042200  16.126200  -3.188360  -3.076460   1.183350 -18.224700  12.346200   3.558120  11.010900  44.313300  34.900100 -74.835300 -21.270300  -0.003306   0.007557  -5.634270  -0.004324   0.003330 -29.800200   7.531180 -12.889400 -25.078800  -0.009973  -0.001515 -17.555100  -0.003406   0.003849 -28.463600   1.813590  -3.341550 -36.310600  -0.000378  -0.003317 -24.182800  -0.009750  -0.003730 -26.606100   1.402380  -2.790980 -26.640400  -0.008134  -0.007668 -17.742500  -0.001587  -0.007069 -26.531300   0.455692  -0.912561 -39.802500  -0.009824  -0.008183 -26.508500   0.005165  -0.005836  11.460400   2.701180   4.204770  64.013900  14.106900   3.244580   2.192780  -3.328140  15.726700 -14.963600 -17.905900   0.442952 -34.088600  31.094100  68.583900  35.014500  -0.000110   0.000156  12.496900  -0.005421   0.001918  36.507800   2.472730   3.333720  29.928300  -0.002976   0.002320  20.949700  -0.004719   0.004177  28.659400  -2.276270  -4.156400  40.093900  -0.002926  -0.002475  26.702600   0.006004   0.003435  29.403900  -3.936670  -6.945490  44.465800   0.004254  -0.003947  29.614100   0.003928  -0.002105  42.808300  -5.440950  -5.844670  64.625200   0.003848   0.005763  43.039000   0.003446  -0.001174   0.799965   2.005240   2.771690   0.183917   0.151414  12.095300  -5.001950  -3.528960   6.386780   0.000000   0.000000   0.000000   1.224660   2.141160  -6.986260   0.520841   1.104480  -9.800900  -9.584290   1.441410   1.699370   0.000000   0.000000   0.000000
